<?xml version="1.0" standalone="no"?>
<!DOCTYPE svg PUBLIC "-//W3C//DTD SVG 20010904//EN"
 "http://www.w3.org/TR/2001/REC-SVG-20010904/DTD/svg10.dtd">
<svg version="1.0" xmlns="http://www.w3.org/2000/svg"
 width="80.000000pt" height="80.000000pt" viewBox="0 0 80.000000 80.000000"
 preserveAspectRatio="xMidYMid meet">
<metadata>
Created by potrace 1.11, written by Peter Selinger 2001-2013
</metadata>
<g transform="translate(0.000000,80.000000) scale(0.100000,-0.100000)"
fill="#000000" stroke="none">
<path d="M623 785 c-12 -8 -25 -29 -28 -47 -6 -26 -3 -35 14 -49 26 -21 56
-17 88 13 56 52 -11 127 -74 83z"/>
<path d="M274 780 c-24 -10 -46 -62 -37 -88 26 -74 107 -68 119 10 5 30 2 41
-19 62 -28 28 -31 29 -63 16z"/>
<path d="M410 720 c-8 -14 -8 -26 0 -40 13 -25 32 -25 54 -1 14 15 15 24 6 40
-14 27 -46 27 -60 1z"/>
<path d="M498 629 c-19 -11 -23 -36 -10 -57 7 -10 15 -10 36 -2 22 8 27 15 24
37 -3 30 -23 39 -50 22z"/>
<path d="M126 614 c-7 -19 10 -44 31 -44 19 0 28 27 13 45 -16 20 -36 19 -44
-1z"/>
<path d="M685 596 c-18 -27 -11 -55 19 -65 46 -18 95 39 66 74 -20 24 -67 19
-85 -9z"/>
<path d="M233 584 c-8 -21 13 -42 28 -27 13 13 5 43 -11 43 -6 0 -13 -7 -17
-16z"/>
<path d="M307 563 c-12 -12 -13 -21 -5 -39 6 -13 17 -24 23 -24 20 0 37 28 30
49 -8 26 -29 33 -48 14z"/>
<path d="M394 555 c-3 -8 -3 -19 0 -24 10 -16 36 -1 36 20 0 22 -28 26 -36 4z"/>
<path d="M562 538 c-32 -32 5 -71 48 -48 30 16 23 54 -10 58 -14 2 -31 -3 -38
-10z"/>
<path d="M213 474 c-14 -37 41 -71 65 -41 9 10 8 19 -4 35 -18 26 -52 29 -61
6z"/>
<path d="M571 428 c-30 -32 -19 -72 25 -88 26 -10 73 3 86 23 39 61 -61 119
-111 65z"/>
<path d="M420 425 c-14 -16 -3 -42 20 -48 21 -5 34 2 43 25 11 30 -41 49 -63
23z"/>
<path d="M470 341 c0 -21 26 -36 36 -20 9 15 -3 39 -21 39 -8 0 -15 -9 -15
-19z"/>
<path d="M295 330 c-4 -6 -4 -22 -1 -36 5 -19 12 -25 29 -22 32 4 32 62 0 66
-11 2 -24 -2 -28 -8z"/>
<path d="M552 298 c-21 -21 -13 -46 17 -56 45 -16 69 19 35 52 -19 19 -36 20
-52 4z"/>
<path d="M660 271 c-5 -11 -10 -24 -10 -30 0 -20 42 -49 67 -46 45 5 58 53 21
79 -31 22 -65 20 -78 -3z"/>
<path d="M376 261 c-9 -14 4 -41 19 -41 18 0 26 25 12 39 -13 13 -24 14 -31 2z"/>
<path d="M234 245 c-3 -8 -3 -19 0 -24 10 -16 36 -1 36 20 0 22 -28 26 -36 4z"/>
<path d="M469 243 c-14 -17 -4 -40 25 -57 13 -9 20 -7 32 8 27 37 -29 84 -57
49z"/>
<path d="M186 164 c-19 -19 -20 -36 -4 -52 19 -19 44 -14 55 11 20 44 -18 75
-51 41z"/>
<path d="M441 96 c-31 -37 -10 -96 33 -96 47 0 62 54 26 90 -23 23 -43 25 -59
6z"/>
</g>
</svg>
